<?xml version="1.0" standalone="no"?>
<!DOCTYPE svg PUBLIC "-//W3C//DTD SVG 20010904//EN"
 "http://www.w3.org/TR/2001/REC-SVG-20010904/DTD/svg10.dtd">
<svg version="1.0" xmlns="http://www.w3.org/2000/svg"
 width="512.000000pt" height="512.000000pt" viewBox="0 0 512.000000 512.000000"
 preserveAspectRatio="xMidYMid meet">
<metadata>
Created by potrace 1.14, written by Peter Selinger 2001-2017
</metadata>
<g transform="translate(0.000000,512.000000) scale(0.100000,-0.100000)"
fill="#000000" stroke="none">
<path d="M4085 5108 c-71 -9 -140 -30 -215 -66 -64 -30 -162 -90 -171 -104 -3
-5 -10 -10 -15 -11 -26 -4 -133 -112 -186 -187 -46 -66 -78 -129 -101 -197
-11 -36 -47 -60 -47 -32 0 14 -93 103 -132 127 -16 9 -28 19 -28 23 0 8 -149
76 -175 79 -3 0 -24 7 -47 16 -23 8 -53 16 -67 19 -14 2 -44 8 -66 11 -44 8
-206 8 -245 0 -58 -12 -71 -16 -146 -47 -94 -39 -159 -73 -197 -105 -16 -13
-32 -24 -36 -24 -15 0 -179 -164 -235 -235 -31 -38 -60 -75 -66 -82 -5 -7 -10
-17 -10 -23 0 -5 -4 -10 -8 -10 -14 0 -45 -77 -39 -94 5 -11 21 -7 85 24 44
21 106 47 138 56 69 21 57 18 114 28 25 5 54 10 65 12 17 4 104 14 140 16 17
1 189 -12 210 -16 19 -4 130 -19 147 -20 18 -2 18 -16 0 -16 -12 0 -22 -4 -22
-9 0 -5 -10 -13 -22 -17 -13 -3 -41 -19 -63 -33 -22 -15 -48 -30 -57 -34 -10
-3 -18 -10 -18 -15 0 -5 -13 -15 -30 -22 -16 -7 -30 -16 -30 -21 0 -4 -13 -16
-29 -25 -17 -10 -28 -21 -25 -26 3 -4 0 -8 -5 -8 -19 0 -132 -121 -196 -210
-87 -120 -160 -274 -181 -380 -3 -19 -9 -39 -12 -45 -3 -5 -7 -16 -8 -25 0 -8
-4 -37 -9 -65 -24 -156 -7 -384 41 -565 14 -52 27 -102 29 -110 12 -49 102
-250 113 -250 15 0 36 19 38 35 3 21 37 118 44 125 3 3 7 14 8 25 2 11 7 22
12 25 4 3 6 13 4 22 -1 10 5 22 14 28 10 5 14 10 10 10 -7 0 8 40 45 120 23
50 22 47 32 78 4 12 12 22 17 22 5 0 7 4 4 8 -3 5 5 24 16 43 12 19 35 59 51
89 57 107 175 291 194 303 7 4 13 13 13 18 0 6 6 16 13 23 6 7 24 29 39 48 15
19 37 46 50 60 13 14 52 58 88 99 36 40 121 129 189 197 91 91 126 120 132
110 7 -11 17 -51 34 -138 2 -8 4 -15 5 -15 3 0 12 -60 11 -77 0 -10 3 -18 7
-18 4 0 7 -15 7 -32 0 -18 1 -37 4 -42 2 -5 5 -23 7 -40 5 -69 15 -163 21
-196 8 -49 12 -540 4 -540 -3 0 -7 -13 -8 -28 -4 -56 -42 -223 -54 -238 -5 -6
-7 -13 -4 -16 3 -3 -2 -24 -10 -48 -15 -43 -26 -84 -27 -107 -1 -7 -6 -13 -11
-13 -5 0 -7 -7 -3 -15 3 -8 1 -15 -5 -15 -6 0 -8 -4 -5 -8 2 -4 -4 -27 -15
-51 -10 -24 -19 -49 -19 -57 0 -8 -4 -14 -10 -14 -5 0 -10 -6 -10 -14 0 -7
-11 -38 -24 -69 -14 -30 -22 -58 -19 -61 4 -3 1 -6 -5 -6 -7 0 -12 -9 -12 -20
0 -11 -5 -20 -10 -20 -6 0 -9 -3 -8 -7 2 -11 -9 -39 -45 -113 -21 -43 -37 -64
-47 -62 -44 10 -546 16 -670 8 -88 -6 -222 -17 -260 -21 -81 -10 -261 -42
-315 -57 -22 -5 -44 -11 -50 -12 -14 -3 -143 -45 -180 -59 -52 -20 -220 -107
-230 -120 -6 -7 -17 -13 -25 -15 -8 -2 -17 -7 -20 -11 -21 -29 -111 -101 -130
-105 -14 -2 -32 -7 -40 -10 -8 -3 -27 -8 -42 -11 -47 -9 -148 -33 -211 -50 -9
-3 -26 -7 -37 -9 -11 -3 -24 -7 -28 -10 -5 -3 -19 -7 -33 -10 -22 -4 -173 -57
-209 -72 -8 -4 -20 -8 -26 -9 -20 -5 -232 -113 -244 -125 -3 -3 -24 -18 -47
-34 -24 -16 -43 -33 -43 -37 0 -5 -5 -9 -11 -9 -23 0 -108 -112 -126 -166 -14
-40 -11 -133 5 -161 6 -12 12 -29 12 -38 0 -8 7 -18 15 -21 8 -4 15 -11 15
-18 0 -13 80 -91 130 -126 19 -13 37 -27 40 -30 6 -6 39 -25 85 -49 16 -9 33
-20 36 -24 3 -5 8 -8 10 -7 5 2 39 -12 112 -44 82 -37 356 -127 389 -128 16
-1 28 -5 28 -11 0 -5 9 -7 20 -4 11 3 20 1 20 -4 0 -5 3 -8 8 -7 4 1 31 -4 61
-10 30 -7 56 -10 59 -7 3 3 10 1 16 -4 11 -8 130 -34 216 -46 14 -2 41 -7 60
-11 32 -6 49 -8 135 -19 17 -2 48 -6 70 -10 39 -6 54 -7 178 -19 31 -3 83 -9
115 -12 320 -32 1018 -37 1312 -9 75 7 216 18 238 19 12 0 22 2 22 5 0 4 21 6
48 7 42 1 127 10 171 19 9 2 44 7 76 11 62 8 73 10 78 13 1 2 13 4 27 6 77 11
97 15 120 20 14 3 40 8 59 11 18 3 43 8 55 11 11 3 30 6 41 8 11 2 21 4 23 5
2 3 2 3 57 15 22 4 45 10 50 11 6 2 35 10 65 19 30 9 60 17 65 19 6 1 37 11
70 21 33 10 63 19 68 21 4 1 10 3 15 4 4 1 10 2 15 1 4 0 7 4 7 11 0 6 3 9 6
5 3 -3 30 5 60 18 30 13 54 22 54 20 0 -7 212 105 258 137 75 52 166 150 189
205 15 36 20 66 17 109 -4 77 -6 84 -17 84 -6 0 -8 3 -4 6 8 9 -42 80 -88 126
-40 39 -166 128 -183 128 -6 0 -12 4 -14 8 -1 4 -39 25 -83 47 -56 27 -98 57
-140 100 -70 71 -145 129 -230 176 -33 18 -62 36 -65 40 -5 7 -40 19 -53 19
-4 -1 -15 6 -23 15 -9 8 -21 15 -28 15 -7 0 -27 7 -45 16 -17 9 -37 17 -44 18
-7 1 -17 5 -23 8 -11 7 -90 37 -114 42 -8 2 -56 16 -107 30 -51 14 -99 26
-107 26 -18 0 -20 19 -5 75 18 74 18 75 34 170 8 48 17 117 20 150 13 133 16
164 20 195 22 150 34 633 19 764 -3 33 -8 87 -9 119 -1 31 -5 60 -9 64 -3 3
-6 26 -6 50 0 24 -4 63 -9 86 -5 23 -15 71 -22 107 -7 36 -15 70 -18 75 -3 6
-6 15 -7 20 -1 6 -5 25 -8 44 -4 19 -11 42 -17 52 -5 11 -7 19 -4 19 3 0 -1
12 -8 28 -8 15 -12 32 -10 39 2 6 -3 25 -12 42 -8 17 -15 33 -15 36 -1 23 -14
65 -22 65 -5 0 -7 3 -5 8 3 4 0 18 -6 32 -5 14 -11 31 -13 39 -1 8 -9 18 -16
22 -7 5 -9 9 -4 9 5 0 3 7 -4 15 -7 8 -9 15 -5 15 4 0 2 7 -6 16 -11 14 -10
15 17 11 16 -3 56 -13 89 -23 33 -10 62 -18 65 -19 26 -4 130 -42 130 -47 0
-4 7 -5 15 -2 8 4 15 2 15 -4 0 -5 12 -13 27 -17 39 -9 213 -97 267 -134 24
-17 47 -31 51 -31 6 0 19 -10 50 -37 7 -7 16 -13 20 -13 4 0 12 -6 19 -12 7
-7 25 -22 41 -33 56 -40 253 -242 317 -325 71 -92 161 -228 164 -247 5 -31 62
-59 65 -33 1 6 3 19 4 30 1 11 3 21 4 23 18 22 18 447 1 447 -4 0 -7 10 -7 23
-2 27 -9 67 -16 87 -2 8 -10 34 -16 57 -6 22 -18 57 -26 77 -8 20 -15 37 -14
38 2 8 -59 120 -93 170 -114 170 -309 317 -512 386 -28 9 -53 19 -56 22 -6 6
-26 11 -55 15 -11 1 -20 3 -20 4 0 4 -38 10 -72 13 -18 2 -33 6 -33 9 0 3 -21
5 -47 4 l-47 -2 29 23 c77 62 313 158 435 178 19 3 56 9 81 14 60 12 263 6
289 -8 11 -6 20 -9 20 -6 0 2 20 -2 45 -9 39 -12 47 -12 60 2 13 12 13 18 3
32 -7 9 -19 20 -25 24 -7 4 -13 15 -13 22 0 8 -6 15 -13 15 -7 0 -19 10 -27
21 -24 34 -126 126 -142 128 -5 1 -16 9 -26 19 -73 68 -259 151 -372 166 -19
2 -35 5 -35 6 0 6 -121 5 -170 -2z"/>
<path d="M967 4943 c-2 -1 -25 -4 -52 -7 -28 -2 -51 -5 -52 -6 -2 -2 -11 -3
-20 -5 -10 -1 -27 -5 -38 -9 -75 -29 -95 -35 -95 -30 0 3 -13 -4 -29 -15 -16
-12 -32 -21 -35 -21 -12 0 -121 -83 -151 -115 -71 -76 -96 -110 -127 -173 -18
-37 -36 -70 -41 -73 -5 -3 -8 -10 -8 -15 1 -14 -11 -78 -17 -89 -3 -5 -7 -23
-9 -40 -20 -218 8 -346 112 -505 50 -78 158 -190 183 -190 5 0 17 -8 28 -18
48 -44 206 -100 307 -108 26 -2 51 -5 55 -5 4 -1 9 -1 12 0 3 2 30 4 60 5 70
4 132 16 148 29 6 5 12 7 12 4 0 -10 63 15 93 35 15 11 27 17 27 13 0 -3 28
13 62 36 65 44 174 152 184 182 3 9 10 17 15 17 5 0 9 6 9 14 0 7 8 24 19 37
10 13 29 53 41 89 109 306 14 629 -240 822 -48 36 -171 99 -181 92 -5 -3 -9 0
-9 5 0 6 -10 11 -23 11 -13 0 -27 3 -31 7 -7 7 -11 8 -81 18 -47 7 -125 12
-128 8z"/>
</g>
</svg>
